<mxfile host="app.diagrams.net" modified="2024-02-12T13:47:20.431Z" agent="Mozilla/5.0 (Macintosh; Intel Mac OS X 10_15_7) AppleWebKit/537.36 (KHTML, like Gecko) Chrome/121.0.0.0 Safari/537.36" etag="rMF8rkw2FPVycvzaAw8z" version="23.1.2" type="github">
  <diagram name="Page-1" id="l4Ln494jIfkKZZI8e6DG">
    <mxGraphModel dx="1147" dy="656" grid="1" gridSize="10" guides="1" tooltips="1" connect="1" arrows="1" fold="1" page="1" pageScale="1" pageWidth="827" pageHeight="1169" math="0" shadow="0">
      <root>
        <mxCell id="0" />
        <mxCell id="1" parent="0" />
        <mxCell id="aJLMxaUz-5seFEbE7MWz-1" value="Git flow" style="swimlane;startSize=20;horizontal=1;childLayout=treeLayout;horizontalTree=0;resizable=0;containerType=tree;fontSize=12;" vertex="1" parent="1">
          <mxGeometry x="40" y="230" width="404" height="1170" as="geometry" />
        </mxCell>
        <mxCell id="aJLMxaUz-5seFEbE7MWz-2" value="Update branch Master" style="whiteSpace=wrap;html=1;" vertex="1" parent="aJLMxaUz-5seFEbE7MWz-1">
          <mxGeometry x="134" y="40" width="160" height="70" as="geometry" />
        </mxCell>
        <mxCell id="aJLMxaUz-5seFEbE7MWz-5" value="Do changes" style="whiteSpace=wrap;html=1;" vertex="1" parent="aJLMxaUz-5seFEbE7MWz-1">
          <mxGeometry x="159" y="290" width="100" height="40" as="geometry" />
        </mxCell>
        <mxCell id="aJLMxaUz-5seFEbE7MWz-8" value="" style="edgeStyle=elbowEdgeStyle;elbow=vertical;html=1;rounded=1;curved=0;sourcePerimeterSpacing=0;targetPerimeterSpacing=0;startSize=6;endSize=6;entryX=0.5;entryY=0;entryDx=0;entryDy=0;" edge="1" target="aJLMxaUz-5seFEbE7MWz-9" source="aJLMxaUz-5seFEbE7MWz-5" parent="aJLMxaUz-5seFEbE7MWz-1">
          <mxGeometry relative="1" as="geometry">
            <mxPoint x="314" y="510" as="sourcePoint" />
            <mxPoint x="209" y="370" as="targetPoint" />
          </mxGeometry>
        </mxCell>
        <mxCell id="aJLMxaUz-5seFEbE7MWz-9" value="Commit with message" style="whiteSpace=wrap;html=1;" vertex="1" parent="aJLMxaUz-5seFEbE7MWz-1">
          <mxGeometry x="159" y="380" width="100" height="40" as="geometry" />
        </mxCell>
        <mxCell id="aJLMxaUz-5seFEbE7MWz-11" value="Push new branch&lt;br&gt;( Master branch is looked to receive pushes directly )" style="whiteSpace=wrap;html=1;" vertex="1" parent="aJLMxaUz-5seFEbE7MWz-1">
          <mxGeometry x="74" y="470" width="260" height="50" as="geometry" />
        </mxCell>
        <mxCell id="aJLMxaUz-5seFEbE7MWz-10" value="" style="elbow=vertical;html=1;rounded=1;sourcePerimeterSpacing=0;targetPerimeterSpacing=0;startSize=6;endSize=6;" edge="1" source="aJLMxaUz-5seFEbE7MWz-9" parent="aJLMxaUz-5seFEbE7MWz-1">
          <mxGeometry relative="1" as="geometry">
            <mxPoint x="384" y="600" as="sourcePoint" />
            <mxPoint x="209" y="470" as="targetPoint" />
          </mxGeometry>
        </mxCell>
        <mxCell id="aJLMxaUz-5seFEbE7MWz-18" value="" style="edgeStyle=orthogonalEdgeStyle;rounded=0;orthogonalLoop=1;jettySize=auto;html=1;" edge="1" source="aJLMxaUz-5seFEbE7MWz-2" target="aJLMxaUz-5seFEbE7MWz-19" parent="aJLMxaUz-5seFEbE7MWz-1">
          <mxGeometry relative="1" as="geometry" />
        </mxCell>
        <mxCell id="aJLMxaUz-5seFEbE7MWz-24" value="" style="edgeStyle=elbowEdgeStyle;elbow=vertical;html=1;rounded=1;curved=0;sourcePerimeterSpacing=0;targetPerimeterSpacing=0;startSize=6;endSize=6;" edge="1" target="aJLMxaUz-5seFEbE7MWz-25" source="aJLMxaUz-5seFEbE7MWz-11" parent="aJLMxaUz-5seFEbE7MWz-1">
          <mxGeometry relative="1" as="geometry">
            <mxPoint x="494" y="550" as="sourcePoint" />
          </mxGeometry>
        </mxCell>
        <mxCell id="aJLMxaUz-5seFEbE7MWz-25" value="Create pull request to branch Master" style="whiteSpace=wrap;html=1;" vertex="1" parent="aJLMxaUz-5seFEbE7MWz-1">
          <mxGeometry x="204" y="560" width="130" height="50" as="geometry" />
        </mxCell>
        <mxCell id="aJLMxaUz-5seFEbE7MWz-26" value="" style="edgeStyle=elbowEdgeStyle;elbow=vertical;html=1;rounded=1;curved=0;sourcePerimeterSpacing=0;targetPerimeterSpacing=0;startSize=6;endSize=6;" edge="1" target="aJLMxaUz-5seFEbE7MWz-27" source="aJLMxaUz-5seFEbE7MWz-25" parent="aJLMxaUz-5seFEbE7MWz-1">
          <mxGeometry relative="1" as="geometry">
            <mxPoint x="419" y="650" as="sourcePoint" />
          </mxGeometry>
        </mxCell>
        <mxCell id="aJLMxaUz-5seFEbE7MWz-27" value="CODE ONWERS are called to review" style="whiteSpace=wrap;html=1;" vertex="1" parent="aJLMxaUz-5seFEbE7MWz-1">
          <mxGeometry x="204" y="650" width="130" height="50" as="geometry" />
        </mxCell>
        <mxCell id="aJLMxaUz-5seFEbE7MWz-37" value="" style="edgeStyle=elbowEdgeStyle;elbow=vertical;html=1;rounded=1;curved=0;sourcePerimeterSpacing=0;targetPerimeterSpacing=0;startSize=6;endSize=6;" edge="1" parent="aJLMxaUz-5seFEbE7MWz-1">
          <mxGeometry relative="1" as="geometry">
            <mxPoint x="149" y="230" as="sourcePoint" />
            <mxPoint x="209" y="290" as="targetPoint" />
          </mxGeometry>
        </mxCell>
        <mxCell id="aJLMxaUz-5seFEbE7MWz-50" value="Approve?" style="rhombus;whiteSpace=wrap;html=1;" vertex="1" parent="aJLMxaUz-5seFEbE7MWz-1">
          <mxGeometry x="210" y="730" width="120" height="80" as="geometry" />
        </mxCell>
        <mxCell id="aJLMxaUz-5seFEbE7MWz-54" value="Dev need to know why and iterate" style="rounded=0;whiteSpace=wrap;html=1;" vertex="1" parent="aJLMxaUz-5seFEbE7MWz-1">
          <mxGeometry x="50" y="780" width="120" height="60" as="geometry" />
        </mxCell>
        <mxCell id="aJLMxaUz-5seFEbE7MWz-56" value="Merge to master" style="rounded=0;whiteSpace=wrap;html=1;" vertex="1" parent="aJLMxaUz-5seFEbE7MWz-1">
          <mxGeometry x="209" y="900" width="120" height="60" as="geometry" />
        </mxCell>
        <mxCell id="aJLMxaUz-5seFEbE7MWz-59" value="" style="edgeStyle=elbowEdgeStyle;elbow=vertical;html=1;rounded=1;curved=0;sourcePerimeterSpacing=0;targetPerimeterSpacing=0;startSize=6;endSize=6;entryX=0.5;entryY=0;entryDx=0;entryDy=0;" edge="1" parent="aJLMxaUz-5seFEbE7MWz-1">
          <mxGeometry relative="1" as="geometry">
            <mxPoint x="270.5" y="810" as="sourcePoint" />
            <mxPoint x="269.5" y="900" as="targetPoint" />
          </mxGeometry>
        </mxCell>
        <mxCell id="aJLMxaUz-5seFEbE7MWz-65" value="Yes" style="edgeLabel;html=1;align=center;verticalAlign=middle;resizable=0;points=[];" vertex="1" connectable="0" parent="aJLMxaUz-5seFEbE7MWz-59">
          <mxGeometry x="-0.2667" y="-4" relative="1" as="geometry">
            <mxPoint x="3" y="6" as="offset" />
          </mxGeometry>
        </mxCell>
        <mxCell id="aJLMxaUz-5seFEbE7MWz-66" value="" style="edgeStyle=elbowEdgeStyle;html=1;rounded=1;sourcePerimeterSpacing=0;targetPerimeterSpacing=0;startSize=6;endSize=6;entryX=0;entryY=0.5;entryDx=0;entryDy=0;exitX=0;exitY=0.75;exitDx=0;exitDy=0;" edge="1" parent="aJLMxaUz-5seFEbE7MWz-1">
          <mxGeometry relative="1" as="geometry">
            <mxPoint x="49" y="815" as="sourcePoint" />
            <mxPoint x="159" y="310" as="targetPoint" />
            <Array as="points">
              <mxPoint x="20" y="540" />
            </Array>
          </mxGeometry>
        </mxCell>
        <mxCell id="aJLMxaUz-5seFEbE7MWz-69" value="" style="endArrow=none;html=1;rounded=0;entryX=0;entryY=0.5;entryDx=0;entryDy=0;" edge="1" parent="aJLMxaUz-5seFEbE7MWz-1" target="aJLMxaUz-5seFEbE7MWz-50">
          <mxGeometry width="50" height="50" relative="1" as="geometry">
            <mxPoint x="200" y="770" as="sourcePoint" />
            <mxPoint x="230" y="790" as="targetPoint" />
          </mxGeometry>
        </mxCell>
        <mxCell id="aJLMxaUz-5seFEbE7MWz-70" value="No" style="endArrow=classic;html=1;rounded=0;entryX=0.5;entryY=0;entryDx=0;entryDy=0;" edge="1" parent="aJLMxaUz-5seFEbE7MWz-1" target="aJLMxaUz-5seFEbE7MWz-54">
          <mxGeometry width="50" height="50" relative="1" as="geometry">
            <mxPoint x="200" y="770" as="sourcePoint" />
            <mxPoint x="70" y="750" as="targetPoint" />
            <Array as="points">
              <mxPoint x="200" y="720" />
              <mxPoint x="170" y="720" />
              <mxPoint x="110" y="720" />
            </Array>
          </mxGeometry>
        </mxCell>
        <mxCell id="aJLMxaUz-5seFEbE7MWz-74" value="CI / CD web-hook is triggered&amp;nbsp;&amp;nbsp;" style="rounded=0;whiteSpace=wrap;html=1;" vertex="1" parent="aJLMxaUz-5seFEbE7MWz-1">
          <mxGeometry x="209" y="1000" width="120" height="60" as="geometry" />
        </mxCell>
        <mxCell id="aJLMxaUz-5seFEbE7MWz-75" value="" style="endArrow=classic;html=1;rounded=0;" edge="1" parent="aJLMxaUz-5seFEbE7MWz-1">
          <mxGeometry width="50" height="50" relative="1" as="geometry">
            <mxPoint x="269" y="960" as="sourcePoint" />
            <mxPoint x="268.5" y="1000" as="targetPoint" />
          </mxGeometry>
        </mxCell>
        <mxCell id="aJLMxaUz-5seFEbE7MWz-76" value="" style="endArrow=classic;html=1;rounded=0;edgeStyle=orthogonalEdgeStyle;entryX=1;entryY=0.5;entryDx=0;entryDy=0;exitX=1.008;exitY=0.667;exitDx=0;exitDy=0;exitPerimeter=0;" edge="1" parent="aJLMxaUz-5seFEbE7MWz-1">
          <mxGeometry width="50" height="50" relative="1" as="geometry">
            <mxPoint x="329.96000000000004" y="1125.02" as="sourcePoint" />
            <mxPoint x="294" y="70" as="targetPoint" />
            <Array as="points">
              <mxPoint x="360" y="1125" />
              <mxPoint x="360" y="70" />
            </Array>
          </mxGeometry>
        </mxCell>
        <mxCell id="aJLMxaUz-5seFEbE7MWz-93" value="Iterate" style="edgeLabel;html=1;align=center;verticalAlign=middle;resizable=0;points=[];" vertex="1" connectable="0" parent="aJLMxaUz-5seFEbE7MWz-76">
          <mxGeometry x="-0.4258" y="2" relative="1" as="geometry">
            <mxPoint y="25" as="offset" />
          </mxGeometry>
        </mxCell>
        <mxCell id="aJLMxaUz-5seFEbE7MWz-94" value="Iterate" style="edgeLabel;html=1;align=center;verticalAlign=middle;resizable=0;points=[];" vertex="1" connectable="0" parent="aJLMxaUz-5seFEbE7MWz-76">
          <mxGeometry x="0.6285" y="1" relative="1" as="geometry">
            <mxPoint y="107" as="offset" />
          </mxGeometry>
        </mxCell>
        <mxCell id="aJLMxaUz-5seFEbE7MWz-78" value="New branch can be deleted after the deploy and iterate" style="rounded=0;whiteSpace=wrap;html=1;" vertex="1" parent="aJLMxaUz-5seFEbE7MWz-1">
          <mxGeometry x="209" y="1090" width="120" height="60" as="geometry" />
        </mxCell>
        <mxCell id="aJLMxaUz-5seFEbE7MWz-84" value="" style="endArrow=classic;html=1;rounded=0;entryX=0.5;entryY=0;entryDx=0;entryDy=0;exitX=0.5;exitY=1;exitDx=0;exitDy=0;" edge="1" parent="aJLMxaUz-5seFEbE7MWz-1" source="aJLMxaUz-5seFEbE7MWz-74" target="aJLMxaUz-5seFEbE7MWz-78">
          <mxGeometry width="50" height="50" relative="1" as="geometry">
            <mxPoint x="260" y="1070" as="sourcePoint" />
            <mxPoint x="380" y="750" as="targetPoint" />
          </mxGeometry>
        </mxCell>
        <mxCell id="aJLMxaUz-5seFEbE7MWz-92" value="" style="edgeStyle=elbowEdgeStyle;elbow=vertical;html=1;rounded=1;curved=0;sourcePerimeterSpacing=0;targetPerimeterSpacing=0;startSize=6;endSize=6;" edge="1" parent="aJLMxaUz-5seFEbE7MWz-1">
          <mxGeometry relative="1" as="geometry">
            <mxPoint x="269" y="700" as="sourcePoint" />
            <mxPoint x="268.76" y="730" as="targetPoint" />
          </mxGeometry>
        </mxCell>
        <mxCell id="aJLMxaUz-5seFEbE7MWz-19" value="Create new branch based on master&lt;br&gt;( Feature / Bug fix / Fix / Enhancement )" style="whiteSpace=wrap;html=1;" vertex="1" parent="aJLMxaUz-5seFEbE7MWz-1">
          <mxGeometry x="44.5" y="160" width="339" height="70" as="geometry" />
        </mxCell>
      </root>
    </mxGraphModel>
  </diagram>
</mxfile>
